<svg width="27" height="36" viewBox="0 0 27 36" fill="none" xmlns="http://www.w3.org/2000/svg">
<path d="M23.6434 9.00015C23.6434 9.32415 23.6275 9.63014 23.5956 9.93615C23.4042 12.5462 22.3834 14.9042 20.8362 16.6323C19.1136 18.5943 16.7211 19.8003 14.0734 19.8003H9.08108C8.28358 19.8003 7.61369 20.4663 7.50204 21.3484L6.28982 30.8525C6.19412 31.5545 5.74753 32.1305 5.15738 32.3105C5.01383 32.3825 4.87028 32.4005 4.71078 32.4005H1.6005C0.611599 32.4005 -0.138038 31.4105 0.0214629 30.3125L3.83349 4.51809C4.2163 1.90805 6.21008 0 8.55474 0H15.6684C20.0706 0 23.6434 4.03207 23.6434 9.00015Z" fill="black"/>
<path d="M26.836 16.1997C26.836 18.6837 25.9428 20.9337 24.5073 22.5718C23.0558 24.1918 21.062 25.1998 18.8609 25.1998H15.4317C14.6501 25.1998 13.9802 25.8298 13.8526 26.7118L12.7042 34.488C12.5766 35.37 11.9067 36 11.1252 36H6.45182C6.16472 36 5.9095 35.928 5.6862 35.784C5.3353 35.568 5.5586 35.046 5.9414 34.866C7.37691 34.344 8.42963 32.9579 8.65293 31.2299L9.6737 23.2738C9.7375 22.8238 10.0725 22.4998 10.4553 22.4998H14.0759C17.2819 22.4998 20.2964 21.0958 22.5294 18.5577C23.8533 17.0817 24.8422 15.2637 25.4164 13.3016C25.544 12.8516 26.0704 12.7616 26.2458 13.1756C26.6286 14.1116 26.836 15.1197 26.836 16.1997Z" fill="black"/>
</svg>
