<svg width="30" height="24" viewBox="0 0 30 24" fill="none" xmlns="http://www.w3.org/2000/svg">
<path d="M0 3C0 2.20435 0.31607 1.44129 0.878679 0.878679C1.44129 0.31607 2.20435 0 3 0H16.5C17.2956 0 18.0587 0.31607 18.6213 0.878679C19.1839 1.44129 19.5 2.20435 19.5 3V6C19.5 6.39782 19.342 6.77935 19.0607 7.06066C18.7794 7.34196 18.3978 7.5 18 7.5C17.6022 7.5 17.2206 7.34196 16.9393 7.06066C16.658 6.77935 16.5 6.39782 16.5 6V3H3V21H16.5V18C16.5 17.6022 16.658 17.2206 16.9393 16.9393C17.2206 16.658 17.6022 16.5 18 16.5C18.3978 16.5 18.7794 16.658 19.0607 16.9393C19.342 17.2206 19.5 17.6022 19.5 18V21C19.5 21.7956 19.1839 22.5587 18.6213 23.1213C18.0587 23.6839 17.2956 24 16.5 24H3C2.20435 24 1.44129 23.6839 0.878679 23.1213C0.31607 22.5587 0 21.7956 0 21V3ZM22.9395 6.4395C23.2208 6.15829 23.6022 6.00032 24 6.00032C24.3977 6.00032 24.7792 6.15829 25.0605 6.4395L29.5605 10.9395C29.8417 11.2208 29.9997 11.6023 29.9997 12C29.9997 12.3977 29.8417 12.7792 29.5605 13.0605L25.0605 17.5605C24.7776 17.8337 24.3987 17.9849 24.0054 17.9815C23.6121 17.9781 23.2359 17.8203 22.9578 17.5422C22.6797 17.2641 22.5219 16.8879 22.5185 16.4946C22.5151 16.1013 22.6663 15.7224 22.9395 15.4395L24.879 13.5H10.5C10.1022 13.5 9.72064 13.342 9.43934 13.0607C9.15803 12.7794 9 12.3978 9 12C9 11.6022 9.15803 11.2206 9.43934 10.9393C9.72064 10.658 10.1022 10.5 10.5 10.5H24.879L22.9395 8.5605C22.6583 8.27921 22.5003 7.89775 22.5003 7.5C22.5003 7.10225 22.6583 6.72079 22.9395 6.4395Z" fill="#ADD8CE"/>
</svg>
