<svg width="30" height="30" viewBox="0 0 30 30" fill="none" xmlns="http://www.w3.org/2000/svg">
<path fill-rule="evenodd" clip-rule="evenodd" d="M2.37039 14.2463C2.37039 21.169 7.38966 25.8847 13.0259 26.8607C13.6709 26.9724 14.1032 27.5857 13.9915 28.2308C13.8799 28.8758 13.2665 29.3081 12.6215 29.1964C6.00025 28.0498 0 22.4691 0 14.2463C-2.27404e-06 10.7518 1.58983 8.00561 3.44643 5.91649C4.7764 4.41997 6.29796 3.20488 7.52167 2.27404H3.8004C3.17245 2.27404 2.66338 1.76498 2.66338 1.13702C2.66338 0.509067 3.17245 0 3.8004 0H10.6225C11.2505 0 11.7596 0.509067 11.7596 1.13702V7.95915C11.7596 8.58711 11.2505 9.09617 10.6225 9.09617C9.99458 9.09617 9.48551 8.58711 9.48551 7.95915V3.76225L9.48208 3.76484C8.18253 4.74497 6.59416 5.94289 5.21825 7.49111C3.5934 9.31946 2.37039 11.5283 2.37039 14.2463ZM27.6298 15.1706C27.6298 8.32102 22.7169 3.63297 17.1531 2.58848C16.5098 2.4677 16.0862 1.84827 16.2069 1.20492C16.3277 0.561598 16.9471 0.137989 17.5905 0.258763C24.1266 1.48584 30 7.03596 30 15.1706C30 18.665 28.4102 21.4112 26.5537 23.5004C25.2236 24.9969 23.702 26.2119 22.4784 27.1429H26.1998C26.8277 27.1429 27.3369 27.6519 27.3369 28.28C27.3369 28.9078 26.8277 29.417 26.1998 29.417H19.3776C18.7496 29.417 18.2406 28.9078 18.2406 28.28V21.4578C18.2406 20.8297 18.7496 20.3207 19.3776 20.3207C20.0056 20.3207 20.5146 20.8297 20.5146 21.4578V25.6546L20.5182 25.6518C21.8178 24.6717 23.406 23.474 24.7818 21.9258C26.4068 20.0974 27.6298 17.8886 27.6298 15.1706Z" fill="#ADD8CE"/>
</svg>
