<svg width="26" height="21" viewBox="0 0 26 21" fill="none" xmlns="http://www.w3.org/2000/svg">
<path d="M25.3499 14.2999H24.6999V9.9084C24.6999 9.39247 24.4927 8.89684 24.1271 8.53122L20.0687 4.4728C19.7031 4.10717 19.2074 3.89999 18.6915 3.89999H16.8999V1.94999C16.8999 0.873434 16.0265 0 14.9499 0H1.94999C0.873434 0 0 0.873434 0 1.94999V14.9499C0 16.0265 0.873434 16.8999 1.94999 16.8999H2.59999C2.59999 19.0531 4.34686 20.7999 6.49998 20.7999C8.65309 20.7999 10.4 19.0531 10.4 16.8999H15.5999C15.5999 19.0531 17.3468 20.7999 19.4999 20.7999C21.653 20.7999 23.3999 19.0531 23.3999 16.8999H25.3499C25.7074 16.8999 25.9999 16.6074 25.9999 16.2499V14.9499C25.9999 14.5924 25.7074 14.2999 25.3499 14.2999ZM6.49998 18.8499C5.42342 18.8499 4.54998 17.9765 4.54998 16.8999C4.54998 15.8234 5.42342 14.9499 6.49998 14.9499C7.57653 14.9499 8.44997 15.8234 8.44997 16.8999C8.44997 17.9765 7.57653 18.8499 6.49998 18.8499ZM12.35 8.77497C12.35 8.95372 12.2037 9.09997 12.025 9.09997H9.74996V11.375C9.74996 11.5537 9.60371 11.7 9.42497 11.7H7.47497C7.29622 11.7 7.14997 11.5537 7.14997 11.375V9.09997H4.87498C4.69623 9.09997 4.54998 8.95372 4.54998 8.77497V6.82498C4.54998 6.64623 4.69623 6.49998 4.87498 6.49998H7.14997V4.22498C7.14997 4.04624 7.29622 3.89999 7.47497 3.89999H9.42497C9.60371 3.89999 9.74996 4.04624 9.74996 4.22498V6.49998H12.025C12.2037 6.49998 12.35 6.64623 12.35 6.82498V8.77497ZM19.4999 18.8499C18.4234 18.8499 17.5499 17.9765 17.5499 16.8999C17.5499 15.8234 18.4234 14.9499 19.4999 14.9499C20.5765 14.9499 21.4499 15.8234 21.4499 16.8999C21.4499 17.9765 20.5765 18.8499 19.4999 18.8499ZM22.7499 10.4H16.8999V5.84998H18.6915L22.7499 9.9084V10.4Z" fill="black"/>
</svg>
