<svg width="25" height="16" viewBox="0 0 25 16" fill="none" xmlns="http://www.w3.org/2000/svg">
<mask id="path-1-inside-1_344_69" fill="white">
<path d="M12.4204 12.3104C19.3237 12.3673 25.0586 -5.55392 24.9996 2.10001C24.9405 9.75395 19.2964 15.9125 12.3931 15.8556C5.48975 15.7987 -0.058598 9.54783 0.000473034 1.8939C0.0595441 -5.76004 5.51711 12.2535 12.4204 12.3104Z"/>
</mask>
<path d="M12.4204 12.3104C19.3237 12.3673 25.0586 -5.55392 24.9996 2.10001C24.9405 9.75395 19.2964 15.9125 12.3931 15.8556C5.48975 15.7987 -0.058598 9.54783 0.000473034 1.8939C0.0595441 -5.76004 5.51711 12.2535 12.4204 12.3104Z" fill="#D9D9D9"/>
<path d="M12.3725 18.5217C16.7568 18.5578 19.9763 15.832 21.7639 13.991C23.7318 11.9643 25.3773 9.51306 26.5269 7.74716C27.1709 6.75796 27.596 6.08097 28.0193 5.45199C28.5103 4.72243 28.5508 4.75013 28.3 4.98745C28.2787 5.00759 27.3649 5.94441 25.7194 6.28646C24.7134 6.49559 23.422 6.47994 22.1098 5.89938C20.8453 5.33988 20.0585 4.47571 19.6203 3.82996C19.2002 3.21102 19.0081 2.6645 18.925 2.39172C18.8353 2.09675 18.8026 1.88446 18.7923 1.8111C18.7736 1.67762 18.7908 1.7198 18.7883 2.0488L31.2108 2.15122C31.2156 1.52349 31.195 0.808721 31.0954 0.0968467C31.0213 -0.433031 30.8058 -1.80529 29.898 -3.14285C29.3774 -3.90989 28.4982 -4.85603 27.1313 -5.46084C25.7167 -6.08672 24.3129 -6.11102 23.1849 -5.87654C21.2956 -5.4838 20.0994 -4.36027 19.7595 -4.03868C18.8715 -3.19848 18.1299 -2.10892 17.7119 -1.48779C17.2262 -0.766083 16.6155 0.196451 16.1148 0.965479C14.9752 2.71602 13.8963 4.25603 12.8492 5.33437C11.6217 6.59845 11.5357 6.09143 12.4684 6.09912L12.3725 18.5217ZM18.7883 2.0488C18.7509 6.89098 15.3264 9.66815 12.441 9.64436L12.3451 22.0669C23.2664 22.1569 31.13 12.6169 31.2108 2.15122L18.7883 2.0488ZM12.441 9.64436C9.55562 9.62057 6.17435 6.78729 6.21172 1.94511L-6.21077 1.84269C-6.29154 12.3084 1.42388 21.9769 12.3451 22.0669L12.441 9.64436ZM6.21172 1.94511C6.21426 1.6161 6.23212 1.57422 6.21139 1.70737C6.2 1.78055 6.16403 1.99228 6.0697 2.28573C5.98247 2.55711 5.78197 3.10038 5.35238 3.71233C4.90419 4.35077 4.10423 5.20185 2.83122 5.74043C1.51026 6.29929 0.218725 6.29364 -0.78394 6.06795C-2.42388 5.69881 -3.32312 4.74704 -3.3441 4.72655C-3.59122 4.48513 -3.5503 4.4581 -3.07064 5.19565C-2.65711 5.83154 -2.24249 6.51545 -1.61386 7.51514C-0.491631 9.29978 1.11577 11.7779 3.05217 13.8367C4.8111 15.7069 7.9882 18.4855 12.3725 18.5217L12.4684 6.09912C13.401 6.1068 13.3071 6.61235 12.0994 5.32819C11.0691 4.23272 10.014 2.67512 8.90157 0.906007C8.41286 0.128822 7.81708 -0.843659 7.34259 -1.57328C6.93422 -2.20122 6.20951 -3.30287 5.33456 -4.15761C4.99968 -4.48476 3.82098 -5.62787 1.93797 -6.05172C0.813776 -6.30477 -0.5902 -6.30362 -2.01426 -5.70114C-3.39037 -5.11894 -4.28409 -4.18742 -4.81646 -3.42907C-5.74481 -2.10664 -5.98142 -0.738112 -6.0637 -0.209523C-6.17423 0.500619 -6.20593 1.21495 -6.21077 1.84269L6.21172 1.94511Z" fill="#07F9A1" mask="url(#path-1-inside-1_344_69)"/>
</svg>
