<svg width="22" height="20" viewBox="0 0 22 20" fill="none" xmlns="http://www.w3.org/2000/svg">
<path d="M8.62345 3.17755C8.62345 2.15042 6.91913 1.11474 4.75012 1.11474C2.58093 1.11474 0.876568 2.15042 0.876568 3.17755C0.876568 4.20468 2.58093 5.24036 4.75012 5.24036C6.91913 5.24036 8.62345 4.20468 8.62345 3.17755ZM9.50002 3.17755C9.50002 5.04474 7.34368 6.3551 4.75012 6.3551C2.15639 6.3551 0 5.04474 0 3.17755C0 1.31036 2.15639 0 4.75012 0C7.34368 0 9.50002 1.31039 9.50002 3.17755ZM8.62345 13.3287C8.62345 14.3559 6.91913 15.3916 4.75012 15.3916C2.58093 15.3916 0.876568 14.3559 0.876568 13.3287H0C0 15.196 2.15639 16.5063 4.75012 16.5063C7.34368 16.5063 9.50002 15.1959 9.50002 13.3287H8.62345ZM8.62345 16.8225C8.62345 17.8496 6.91913 18.8853 4.75012 18.8853C2.58093 18.8853 0.876568 17.8496 0.876568 16.8225H0C0 18.6897 2.15639 20 4.75012 20C7.34368 20 9.50002 18.6896 9.50002 16.8225H8.62345ZM8.62345 9.86413C8.62345 10.8913 6.91913 11.9269 4.75012 11.9269C2.58093 11.9269 0.876568 10.8913 0.876568 9.86413H0C0 11.7313 2.15639 13.0417 4.75012 13.0417C7.34368 13.0417 9.50002 11.7313 9.50002 9.86413H8.62345ZM8.62345 6.66154C8.62345 7.68867 6.91913 8.72435 4.75012 8.72435C2.58093 8.72435 0.876568 7.68867 0.876568 6.66154H0C0 8.52875 2.15639 9.83909 4.75012 9.83909C7.34368 9.83909 9.50002 8.5287 9.50002 6.66154H8.62345Z" fill="black"/>
<path d="M0 3.17754V17.104C0 17.4118 0.196222 17.6613 0.438284 17.6613C0.680346 17.6613 0.876568 17.4118 0.876568 17.104V3.17754C0.876568 2.86971 0.680346 2.62017 0.438284 2.62017C0.196222 2.62017 0 2.86971 0 3.17754ZM8.62337 3.17754V17.104C8.62337 17.4118 8.81959 17.6613 9.06165 17.6613C9.30372 17.6613 9.49994 17.4118 9.49994 17.104V3.17754C9.49994 2.86971 9.30372 2.62017 9.06165 2.62017C8.81959 2.62017 8.62337 2.86971 8.62337 3.17754ZM19.1665 8.9216C20.2598 9.40176 21.0082 10.7149 21.0082 12.2097C21.0082 14.1305 19.7839 15.6874 18.2735 15.6874C17.2637 15.6874 16.3513 14.9857 15.8742 13.8798C15.7578 13.61 15.4914 13.5112 15.2791 13.6593C15.0669 13.8073 14.9893 14.1462 15.1057 14.416C15.7352 15.8752 16.9404 16.8021 18.2735 16.8021C20.268 16.8021 21.8847 14.7461 21.8847 12.2097C21.8847 10.2359 20.8966 8.50213 19.4527 7.86794C19.2239 7.76746 18.9744 7.92185 18.8953 8.21281C18.8163 8.50377 18.9377 8.8211 19.1665 8.9216Z" fill="black"/>
<path d="M16.8 7.79019C16.8 5.86955 15.5757 4.31248 14.0654 4.31248C12.5552 4.31248 11.3307 5.86966 11.3307 7.79019C11.3307 9.71072 12.5552 11.2679 14.0654 11.2679C15.5757 11.2679 16.8 9.71083 16.8 7.79019ZM17.6766 7.79019C17.6766 10.3265 16.0598 12.3826 14.0654 12.3826C12.071 12.3826 10.4541 10.3264 10.4541 7.79019C10.4541 5.25399 12.071 3.19774 14.0654 3.19774C16.0598 3.19774 17.6766 5.25391 17.6766 7.79019Z" fill="black"/>
</svg>
