<svg width="41" height="26" viewBox="0 0 41 26" fill="none" xmlns="http://www.w3.org/2000/svg">
<path d="M2.27778 4.30247C3.53576 4.30247 4.55556 3.33933 4.55556 2.15123C4.55556 0.96314 3.53576 0 2.27778 0C1.0198 0 0 0.96314 0 2.15123C0 3.33933 1.0198 4.30247 2.27778 4.30247Z" fill="#231F20"/>
<path d="M2.27778 15.0586C3.53576 15.0586 4.55556 14.0955 4.55556 12.9074C4.55556 11.7193 3.53576 10.7562 2.27778 10.7562C1.0198 10.7562 0 11.7193 0 12.9074C0 14.0955 1.0198 15.0586 2.27778 15.0586Z" fill="#231F20"/>
<path d="M2.27778 25.8148C3.53576 25.8148 4.55556 24.8517 4.55556 23.6636C4.55556 22.4755 3.53576 21.5123 2.27778 21.5123C1.0198 21.5123 0 22.4755 0 23.6636C0 24.8517 1.0198 25.8148 2.27778 25.8148Z" fill="#231F20"/>
<path d="M38.8589 10.7562H11.2522C10.0697 10.7562 9.11111 11.6615 9.11111 12.7783V13.0365C9.11111 14.1533 10.0697 15.0586 11.2522 15.0586H38.8589C40.0414 15.0586 41 14.1533 41 13.0365V12.7783C41 11.6615 40.0414 10.7562 38.8589 10.7562Z" fill="#231F20"/>
<path d="M38.8589 21.5123H11.2522C10.0697 21.5123 9.11111 22.4177 9.11111 23.5345V23.7927C9.11111 24.9095 10.0697 25.8148 11.2522 25.8148H38.8589C40.0414 25.8148 41 24.9095 41 23.7927V23.5345C41 22.4177 40.0414 21.5123 38.8589 21.5123Z" fill="#231F20"/>
<path d="M38.8589 0H11.2522C10.0697 0 9.11111 0.905352 9.11111 2.02216V2.28031C9.11111 3.39712 10.0697 4.30247 11.2522 4.30247H38.8589C40.0414 4.30247 41 3.39712 41 2.28031V2.02216C41 0.905352 40.0414 0 38.8589 0Z" fill="#231F20"/>
</svg>
