<svg width="20" height="24" viewBox="0 0 20 24" fill="none" xmlns="http://www.w3.org/2000/svg">
<path d="M17.8571 0H2.14286C1.57454 0 1.02949 0.264646 0.627628 0.73572C0.225765 1.20679 0 1.84571 0 2.5119L0 20.9325C0 21.5987 0.225765 22.2377 0.627628 22.7087C1.02949 23.1798 1.57454 23.4444 2.14286 23.4444H17.8571C18.4255 23.4444 18.9705 23.1798 19.3724 22.7087C19.7742 22.2377 20 21.5987 20 20.9325V2.5119C20 1.84571 19.7742 1.20679 19.3724 0.73572C18.9705 0.264646 18.4255 0 17.8571 0ZM17.1254 16.0851L16.4558 19.4866C16.4218 19.6596 16.3388 19.8139 16.2203 19.9244C16.1019 20.0349 15.955 20.0952 15.8036 20.0952C8.66071 20.0952 2.85714 13.3073 2.85714 4.91915C2.86246 4.74334 2.91577 4.57418 3.00923 4.43655C3.10269 4.29891 3.23137 4.20008 3.37634 4.15459L6.27812 3.36962C6.32762 3.35735 6.37799 3.35051 6.42857 3.34921C6.55807 3.35687 6.68345 3.40502 6.7917 3.48867C6.89996 3.57232 6.98714 3.68841 7.0442 3.8249L8.38348 7.48809C8.41628 7.58686 8.43455 7.69144 8.4375 7.79737C8.4266 8.02974 8.33845 8.24786 8.19196 8.40494L6.50045 10.0272C7.52536 12.5736 9.2737 14.623 11.446 15.8245L12.8299 13.8416C12.9639 13.6699 13.15 13.5666 13.3482 13.5538C13.4386 13.5572 13.5278 13.5786 13.6121 13.6171L16.7371 15.1871C16.8535 15.2539 16.9526 15.356 17.024 15.483C17.0954 15.6099 17.1364 15.7569 17.1429 15.9087C17.142 15.968 17.1361 16.0271 17.1254 16.0851Z" fill="black"/>
</svg>
