<svg width="27" height="20" viewBox="0 0 27 20" fill="none" xmlns="http://www.w3.org/2000/svg">
<path d="M26.0192 0.96134L20.5349 0.0238594C19.939 -0.0777009 19.3273 0.152763 19.0847 0.566817L16.5535 4.94172C16.3321 5.32453 16.4797 5.77374 16.9174 6.03545L20.113 7.97291C18.2146 10.9689 14.8977 13.4611 10.7687 14.8946L8.15312 12.5275C7.79453 12.2033 7.19337 12.0939 6.67658 12.258L0.770455 14.1329C0.206209 14.3165 -0.104917 14.7696 0.0321892 15.211L1.29779 19.2735C1.42962 19.6953 1.93586 20 2.53175 20C16.0367 20 27 11.8947 27 1.87538C27 1.43789 26.594 1.05899 26.0192 0.96134Z" fill="black"/>
</svg>
