<svg width="19" height="20" viewBox="0 0 19 20" fill="none" xmlns="http://www.w3.org/2000/svg">
<path d="M16.9643 0H2.03571C1.49581 0 0.978017 0.225765 0.596247 0.627628C0.214476 1.02949 0 1.57454 0 2.14286L0 17.8571C0 18.4255 0.214476 18.9705 0.596247 19.3724C0.978017 19.7742 1.49581 20 2.03571 20H16.9643C17.5042 20 18.022 19.7742 18.4038 19.3724C18.7855 18.9705 19 18.4255 19 17.8571V2.14286C19 1.57454 18.7855 1.02949 18.4038 0.627628C18.022 0.225765 17.5042 0 16.9643 0ZM16.2692 13.7219L15.633 16.6237C15.6007 16.7712 15.5218 16.9028 15.4093 16.9971C15.2968 17.0914 15.1572 17.1428 15.0134 17.1429C8.22768 17.1429 2.71429 11.3522 2.71429 4.19643C2.71933 4.04645 2.76998 3.90214 2.85877 3.78473C2.94756 3.66732 3.06981 3.58301 3.20752 3.5442L5.96422 2.87455C6.01124 2.86409 6.05909 2.85826 6.10714 2.85714C6.23016 2.86368 6.34928 2.90476 6.45212 2.97612C6.55496 3.04748 6.63778 3.14651 6.69199 3.26295L7.96431 6.38795C7.99547 6.4722 8.01282 6.56142 8.01562 6.65179C8.00527 6.85002 7.92153 7.03609 7.78237 7.17009L6.17542 8.55402C7.1491 10.7263 8.81001 12.4746 10.8737 13.4996L12.1884 11.808C12.3157 11.6615 12.4925 11.5734 12.6808 11.5625C12.7667 11.5654 12.8514 11.5837 12.9315 11.6165L15.9002 12.9558C16.0109 13.0128 16.105 13.0999 16.1728 13.2082C16.2406 13.3165 16.2796 13.4419 16.2857 13.5714C16.2849 13.622 16.2793 13.6724 16.2692 13.7219Z" fill="black"/>
</svg>
