<svg width="39" height="38" viewBox="0 0 39 38" fill="none" xmlns="http://www.w3.org/2000/svg">
<path d="M35.3776 14.2682C35.3776 14.0498 35.3776 13.7586 35.3776 13.4674C35.3776 6.04215 31.0467 0 25.7244 0C22.0719 0 18.7324 2.76628 17.0627 7.42529C14.245 7.93487 11.7404 10.1188 10.175 13.3946C9.75755 13.249 9.34011 13.1762 8.8705 13.1762C3.96563 13.1762 0 18.7088 0 25.5517C0 32.3946 0 25.5517 0 25.6245C0 32.4674 3.96563 38 8.8705 38H24.2634C27.3942 38 30.0553 34.7969 30.5771 30.6475H31.5164H31.6207C31.6207 30.6475 31.6729 30.6475 31.7251 30.6475C35.2733 30.6475 38.1953 26.5709 38.1953 21.5479C38.1953 18.7088 37.0995 15.9425 35.3776 14.2682ZM24.3156 33.9234H8.8705C5.68755 33.9234 3.07858 30.3563 2.97423 25.9157C2.97423 25.8429 3.02641 25.6973 3.02641 25.6245C3.02641 23.3678 3.65256 21.3295 4.69615 19.8736C5.73973 18.4176 7.20076 17.4713 8.8705 17.4713C9.18357 17.4713 9.49665 17.4713 9.80973 17.5441C10.6968 17.8352 11.5838 18.5632 12.21 19.2184C12.8883 19.8008 13.7754 19.5824 14.245 18.636C14.6624 17.6897 14.5059 16.4521 13.8275 15.7969C13.5666 15.5785 13.3057 15.2874 12.9927 15.069C14.245 12.8123 16.1756 11.4291 18.315 11.4291C22.0197 11.4291 25.0461 15.6513 25.0461 20.8199C25.0461 21.3295 24.9939 21.8391 24.9418 22.4215C24.8374 23.295 25.1505 24.2414 25.7766 24.6054C27.0289 25.4061 27.8116 27.1533 27.8116 29.046C27.8116 31.7395 26.2462 33.9234 24.3156 33.9234ZM31.7251 26.6437C31.6729 26.6437 31.6729 26.6437 31.6207 26.6437C31.5685 26.6437 31.5685 26.6437 31.5164 26.6437H30.4206C30.0032 24.6782 29.1683 22.8582 27.9682 21.6935C27.9682 21.4751 27.9682 21.1839 27.9682 20.8927C27.9682 14.4138 24.733 9.09962 20.4543 7.71648C21.7066 5.53257 23.6373 4.14942 25.7244 4.14942C29.4292 4.14942 32.4556 8.37165 32.4556 13.5402C32.4556 14.0498 32.4034 14.5594 32.3512 15.1418C32.2469 16.0153 32.5599 16.9617 33.1861 17.3257C34.4384 18.1264 35.2211 19.8736 35.2211 21.7663C35.2211 24.4598 33.6557 26.6437 31.7251 26.6437Z" fill="black"/>
</svg>
