<svg width="22" height="20" viewBox="0 0 22 20" fill="none" xmlns="http://www.w3.org/2000/svg">
<path d="M19.9884 8.36791H19.25V8.33333H11V11.6667H16.1806C15.4248 13.6071 13.3939 15 11 15C7.96264 15 5.50001 12.7612 5.50001 10C5.50001 7.23875 7.96264 5 11 5C12.4021 5 13.6776 5.48083 14.6488 6.26625L17.2416 3.90916C15.6044 2.52208 13.4145 1.66666 11 1.66666C5.93772 1.66666 1.83334 5.39791 1.83334 10C1.83334 14.6021 5.93772 18.3333 11 18.3333C16.0623 18.3333 20.1667 14.6021 20.1667 10C20.1667 9.44125 20.1034 8.89583 19.9884 8.36791Z" fill="#FFC107"/>
<path d="M2.89026 6.12125L5.90197 8.12916C6.71688 6.295 8.69047 5 11 5C12.4021 5 13.6776 5.48083 14.6488 6.26625L17.2416 3.90916C15.6044 2.52208 13.4145 1.66666 11 1.66666C7.47909 1.66666 4.42568 3.47375 2.89026 6.12125Z" fill="#FF3D00"/>
<path d="M11 18.3333C13.3678 18.3333 15.5192 17.5096 17.1458 16.17L14.3087 13.9875C13.3575 14.6452 12.1951 15.0009 11 15C8.61576 15 6.5913 13.6179 5.82864 11.6892L2.83939 13.7829C4.35647 16.4817 7.43739 18.3333 11 18.3333Z" fill="#4CAF50"/>
<path d="M19.9884 8.36792H19.25V8.33334H11V11.6667H16.1805C15.819 12.5902 15.1678 13.3972 14.3073 13.9879L14.3087 13.9871L17.1458 16.1696C16.945 16.3354 20.1667 14.1667 20.1667 10C20.1667 9.44125 20.1034 8.89584 19.9884 8.36792Z" fill="#1976D2"/>
</svg>
