<svg width="27" height="28" viewBox="0 0 27 28" fill="none" xmlns="http://www.w3.org/2000/svg">
<path d="M10.4993 16.7976H16.4989V26.5997H10.4993V16.7976Z" fill="#231F20"/>
<path d="M26.1285 11.4485L14.5642 0.414205C14.4248 0.282957 14.2589 0.178783 14.0761 0.107692C13.8933 0.0366012 13.6973 0 13.4993 0C13.3013 0 13.1052 0.0366012 12.9225 0.107692C12.7397 0.178783 12.5738 0.282957 12.4344 0.414205L0.870117 11.4625C0.59029 11.7259 0.369291 12.0385 0.219951 12.3823C0.0706107 12.726 -0.0040944 13.094 0.000173035 13.4649V25.1994C-0.000989125 25.9162 0.292314 26.6062 0.819682 27.1272C1.34705 27.6482 2.06833 27.9606 2.83499 28H7.49969V15.3974C7.49969 15.026 7.65771 14.6698 7.939 14.4072C8.22029 14.1446 8.60179 13.9971 8.99959 13.9971H17.999C18.3968 13.9971 18.7783 14.1446 19.0596 14.4072C19.3409 14.6698 19.4989 15.026 19.4989 15.3974V28H24.1636C24.9303 27.9606 25.6515 27.6482 26.1789 27.1272C26.7063 26.6062 26.9996 25.9162 26.9984 25.1994V13.4649C26.9996 12.7129 26.6877 11.9899 26.1285 11.4485Z" fill="#231F20"/>
</svg>
