<svg width="29" height="34" viewBox="0 0 29 34" fill="none" xmlns="http://www.w3.org/2000/svg">
<path d="M24.9441 18.7C25.0163 18.1904 25.0163 17.5952 25.0163 17C25.0163 16.4048 24.9441 15.8952 24.9441 15.3L27.9885 12.4951C28.2789 12.2403 28.3511 11.8154 28.1337 11.3903L25.2336 5.52495C25.0885 5.18462 24.6538 5.01535 24.3634 5.18462L20.7383 6.88471C20.0133 6.20487 19.1438 5.60962 18.2737 5.18462L17.7661 0.67984C17.6938 0.340329 17.4035 0 17.041 0H11.2408C10.8783 0 10.588 0.340329 10.5158 0.67984L9.93589 5.18462C9.06571 5.60962 8.26845 6.20479 7.47052 6.88471L3.84541 5.18462C3.48288 5.01535 3.12034 5.18462 2.97523 5.52495L0.0751349 11.3904C-0.0692938 11.7298 0.00281841 12.2403 0.220245 12.4952L3.3379 15.3C3.3379 15.8952 3.26565 16.4048 3.26565 17C3.26565 17.5952 3.3379 18.1048 3.3379 18.7L0.29338 21.5049C0.00302273 21.7597 -0.0690892 22.1846 0.148201 22.6097L3.0483 28.4751C3.19347 28.8154 3.62819 28.9847 3.91848 28.8154L7.54365 27.1153C8.26866 27.7951 9.13816 28.3904 10.0083 28.8154L10.5882 33.3202C10.661 33.7452 10.9506 34 11.3132 34H17.1134C17.4759 34 17.7662 33.6597 17.8384 33.3202L18.419 28.8154C19.2885 28.3904 20.0865 27.7952 20.8837 27.1153L24.5088 28.8154C24.8713 28.9847 25.2338 28.8154 25.379 28.4751L28.2791 22.6096C28.4242 22.2702 28.3513 21.7597 28.1339 21.5048L24.9441 18.7ZM14.141 22.95C11.3131 22.95 9.06584 20.3154 9.06584 17C9.06584 13.6846 11.3131 11.05 14.141 11.05C16.9688 11.05 19.2161 13.6846 19.2161 17C19.2161 20.3154 16.9688 22.95 14.141 22.95Z" fill="black"/>
</svg>
