<svg width="30" height="24" viewBox="0 0 30 24" fill="none" xmlns="http://www.w3.org/2000/svg">
<path d="M28.125 10.0021H5.8875L12.6938 2.73542C13.012 2.39506 13.1651 1.95626 13.1194 1.51555C13.0737 1.07484 12.8329 0.668318 12.45 0.38542C12.0671 0.102523 11.5734 -0.0335804 11.0776 0.0070525C10.5818 0.0476854 10.1245 0.261726 9.80625 0.602087L0.43125 10.6021C0.368176 10.6816 0.311774 10.7652 0.2625 10.8521C0.2625 10.9354 0.2625 10.9854 0.13125 11.0688C0.0462631 11.2599 0.0017646 11.4633 0 11.6688C0.0017646 11.8742 0.0462631 12.0777 0.13125 12.2688C0.13125 12.3521 0.13125 12.4021 0.2625 12.4854C0.311774 12.5723 0.368176 12.6559 0.43125 12.7354L9.80625 22.7354C9.98254 22.9236 10.2033 23.0749 10.4528 23.1786C10.7024 23.2823 10.9745 23.3358 11.25 23.3354C11.6881 23.3362 12.1127 23.2006 12.45 22.9521C12.6399 22.8122 12.7968 22.6403 12.9118 22.4464C13.0269 22.2525 13.0977 22.0403 13.1204 21.822C13.143 21.6037 13.117 21.3836 13.0438 21.1743C12.9706 20.9649 12.8516 20.7705 12.6938 20.6021L5.8875 13.3354H28.125C28.6223 13.3354 29.0992 13.1598 29.4508 12.8473C29.8025 12.5347 30 12.1108 30 11.6688C30 11.2267 29.8025 10.8028 29.4508 10.4902C29.0992 10.1777 28.6223 10.0021 28.125 10.0021Z" fill="#231F20"/>
</svg>
