<svg width="26" height="27" viewBox="0 0 26 27" fill="none" xmlns="http://www.w3.org/2000/svg">
<path d="M26 13.5C26 20.9575 20.1792 27 13 27C5.8208 27 0 20.9575 0 13.5C0 6.04686 5.8208 0 13 0C20.1792 0 26 6.04686 26 13.5ZM13.3489 4.46371C10.4922 4.46371 8.67016 5.71339 7.23943 7.93441C7.05407 8.22215 7.11608 8.61022 7.38175 8.81942L9.20065 10.2516C9.47349 10.4665 9.86223 10.4154 10.0742 10.1361C11.0106 8.90271 11.6527 8.18748 13.078 8.18748C14.1489 8.18748 15.4735 8.9032 15.4735 9.98156C15.4735 10.7968 14.8254 11.2155 13.768 11.8311C12.5349 12.5489 10.9032 13.4424 10.9032 15.6774V15.8952C10.9032 16.2559 11.1849 16.5484 11.5323 16.5484H14.4677C14.8151 16.5484 15.0968 16.2559 15.0968 15.8952V15.8226C15.0968 14.2733 19.4573 14.2087 19.4573 10.0161C19.4573 6.85876 16.3035 4.46371 13.3489 4.46371ZM13 17.9637C11.6704 17.9637 10.5887 19.087 10.5887 20.4677C10.5887 21.8484 11.6704 22.9718 13 22.9718C14.3296 22.9718 15.4113 21.8484 15.4113 20.4677C15.4113 19.087 14.3296 17.9637 13 17.9637Z" fill="black"/>
</svg>
