<svg width="23" height="20" viewBox="0 0 23 20" fill="none" xmlns="http://www.w3.org/2000/svg">
<path d="M21.3571 7.85714H13.9643V1.42857C13.9643 0.639732 13.2286 0 12.3214 0H10.6786C9.77141 0 9.03571 0.639732 9.03571 1.42857V7.85714H1.64286C0.735692 7.85714 0 8.49687 0 9.28571V10.7143C0 11.5031 0.735692 12.1429 1.64286 12.1429H9.03571V18.5714C9.03571 19.3603 9.77141 20 10.6786 20H12.3214C13.2286 20 13.9643 19.3603 13.9643 18.5714V12.1429H21.3571C22.2643 12.1429 23 11.5031 23 10.7143V9.28571C23 8.49687 22.2643 7.85714 21.3571 7.85714Z" fill="black"/>
<path d="M21.3571 7.85714H13.9643V1.42857C13.9643 0.639732 13.2286 0 12.3214 0H10.6786C9.77141 0 9.03571 0.639732 9.03571 1.42857V7.85714H1.64286C0.735692 7.85714 0 8.49687 0 9.28571V10.7143C0 11.5031 0.735692 12.1429 1.64286 12.1429H9.03571V18.5714C9.03571 19.3603 9.77141 20 10.6786 20H12.3214C13.2286 20 13.9643 19.3603 13.9643 18.5714V12.1429H21.3571C22.2643 12.1429 23 11.5031 23 10.7143V9.28571C23 8.49687 22.2643 7.85714 21.3571 7.85714Z" fill="black"/>
</svg>
