<svg width="25" height="17" viewBox="0 0 25 17" fill="none" xmlns="http://www.w3.org/2000/svg">
<mask id="path-1-inside-1_344_62" fill="white">
<path d="M13.5008 3.5589C6.74537 2.70258 -0.817236 19.5908 0.0715014 12.1009C0.960238 4.61091 7.15703 -0.766698 13.9124 0.0896228C20.6678 0.945944 25.4237 7.71193 24.5349 15.2019C23.6462 22.6918 20.2562 4.41522 13.5008 3.5589Z"/>
</mask>
<path d="M13.5008 3.5589C6.74537 2.70258 -0.817236 19.5908 0.0715014 12.1009C0.960238 4.61091 7.15703 -0.766698 13.9124 0.0896228C20.6678 0.945944 25.4237 7.71193 24.5349 15.2019C23.6462 22.6918 20.2562 4.41522 13.5008 3.5589Z" fill="#D9D9D9"/>
<path d="M14.2223 -2.52215C9.93565 -3.06554 6.48783 -0.770887 4.5363 0.825633C2.38866 2.58258 0.510785 4.79282 -0.806994 6.38922C-1.54518 7.28348 -2.03501 7.89719 -2.51787 8.46415C-3.07791 9.12173 -3.11446 9.08976 -2.84297 8.88637C-2.81953 8.8688 -1.82363 8.05806 -0.176936 7.91404C0.829534 7.82601 2.09089 7.99079 3.31158 8.71072C4.48831 9.40472 5.16503 10.3419 5.52451 11.0258C5.86902 11.6812 5.99801 12.2393 6.04982 12.5167C6.10584 12.8165 6.11485 13.0287 6.11694 13.102C6.12075 13.2355 6.10843 13.1927 6.1466 12.8709L-6.0036 11.3308C-6.07651 11.9453 -6.13391 12.6482 -6.11366 13.3576C-6.09858 13.8858 -6.0364 15.2561 -5.29192 16.6724C-4.86497 17.4847 -4.10654 18.5129 -2.83442 19.2632C-1.51834 20.0393 -0.147905 20.2256 0.980754 20.1269C2.87182 19.9615 4.16456 19.0006 4.53279 18.7248C5.49385 18.0048 6.33864 17.0234 6.81555 16.4635C7.36963 15.8129 8.07236 14.9409 8.64616 14.2457C9.95237 12.6634 11.1762 11.2803 12.3188 10.3456C13.6574 9.25044 13.6882 9.75518 12.7792 9.63996L14.2223 -2.52215ZM6.1466 12.8709C6.70801 8.13965 10.3601 5.81184 13.1909 6.17068L14.634 -5.99143C3.95399 -7.34524 -4.78753 1.08218 -6.0036 11.3308L6.1466 12.8709ZM13.1909 6.17068C16.0217 6.52951 19.0212 9.70049 18.4598 14.4318L30.61 15.972C31.8261 5.72336 25.314 -4.63762 14.634 -5.99143L13.1909 6.17068ZM18.4598 14.4318C18.4217 14.7535 18.3997 14.792 18.4346 14.6634C18.4538 14.5928 18.5121 14.3891 18.6366 14.1122C18.7517 13.856 19.0073 13.3466 19.4949 12.7967C20.0036 12.2229 20.8794 11.4825 22.1835 11.1029C23.5363 10.7092 24.7988 10.8644 25.7549 11.2012C27.3191 11.7522 28.0959 12.7877 28.1146 12.8106C28.3305 13.0758 28.2875 13.0976 27.8978 12.3197C27.5618 11.6489 27.23 10.9311 26.7228 9.87892C25.8173 8.0007 24.5118 5.38693 22.8386 3.14565C21.3182 1.10902 18.509 -1.97877 14.2223 -2.52215L12.7792 9.63996C11.8702 9.52474 12.0181 9.04264 13.061 10.4396C13.9512 11.632 14.8154 13.2798 15.7129 15.1415C16.1072 15.9594 16.5852 16.9811 16.9708 17.7508C17.3026 18.4133 17.893 19.5765 18.6572 20.5152C18.95 20.8749 19.9798 22.1301 21.7762 22.763C22.8483 23.1406 24.2217 23.3022 25.6802 22.8777C27.09 22.4674 28.0664 21.6591 28.6706 20.9776C29.7241 19.7891 30.1048 18.475 30.243 17.9662C30.4285 17.2829 30.5371 16.5865 30.61 15.972L18.4598 14.4318Z" fill="#07F9A1" mask="url(#path-1-inside-1_344_62)"/>
</svg>
