<svg width="30" height="41" viewBox="0 0 30 41" fill="none" xmlns="http://www.w3.org/2000/svg">
<path d="M14.8098 0C9.29751 0 4.81619 4.36637 4.81619 9.73721C4.81619 15.0056 9.04504 19.2694 14.5573 19.4539C14.7256 19.4334 14.8939 19.4334 15.0201 19.4539H15.1253H15.1674C20.5534 19.2694 24.7823 15.0056 24.8033 9.73721C24.8033 4.36637 20.322 0 14.8098 0Z" fill="#292D32"/>
<path d="M25.4993 24.9285C19.6294 21.1156 10.0567 21.1156 4.1447 24.9285C1.47274 26.6504 0 29.0079 0 31.5293C0 34.0507 1.47274 36.3876 4.12366 38.1096C7.06913 40.0365 10.9402 41 14.8114 41C18.6826 41 22.5538 40.0365 25.4993 38.1096C28.1502 36.3671 29.6229 34.0302 29.6229 31.4883C29.6019 28.9874 28.1502 26.6299 25.4993 24.9285ZM19.7135 29.8483L14.4117 35.0142C14.1592 35.2602 13.8226 35.3832 13.486 35.3832C13.1493 35.3832 12.8127 35.2397 12.5602 35.0142L9.90941 32.4313C9.40447 31.9393 9.40447 31.1193 9.90941 30.6273C10.4143 30.1353 11.2558 30.1353 11.7608 30.6273L13.486 32.3083L17.8621 28.0444C18.367 27.5524 19.2086 27.5524 19.7135 28.0444C20.2395 28.5364 20.2395 29.3563 19.7135 29.8483Z" fill="#292D32"/>
</svg>
