<svg width="19" height="14" viewBox="0 0 19 14" fill="none" xmlns="http://www.w3.org/2000/svg">
<path d="M17.9577 0H0.945144C0.694566 0.000281919 0.454334 0.0965678 0.277149 0.267736C0.099963 0.438903 0.000291831 0.670976 0 0.913043V13.087C0.000291831 13.329 0.099963 13.5611 0.277149 13.7323C0.454334 13.9034 0.694566 13.9997 0.945144 14H17.9577C18.2083 13.9997 18.4485 13.9034 18.6257 13.7323C18.8029 13.5611 18.9026 13.329 18.9029 13.087V0.913043C18.9026 0.670976 18.8029 0.438903 18.6257 0.267736C18.4485 0.0965678 18.2083 0.000281919 17.9577 0ZM17.6427 1.21739V3.65217H1.26019V1.21739H17.6427ZM1.26019 12.7826V6.08696H17.6427V12.7826H1.26019Z" fill="black"/>
<path d="M5.35572 9.13043H2.83533V10.3478H5.35572V9.13043Z" fill="black"/>
<path d="M9.13649 9.13043H6.61611V10.3478H9.13649V9.13043Z" fill="black"/>
</svg>
