<svg width="20" height="20" viewBox="0 0 20 20" fill="none" xmlns="http://www.w3.org/2000/svg">
<path d="M16.4627 7.5H12.5428L8.93817 0.314844C8.8901 0.219183 8.8207 0.139684 8.73698 0.0843955C8.65326 0.0291074 8.55821 -6.91121e-06 8.46143 1.23059e-09H6.21495C5.85037 1.23059e-09 5.58731 0.397266 5.68746 0.796484L7.36906 7.5H3.84122L2.35957 5.25C2.256 5.09258 2.09308 5 1.92057 5H0.549011C0.191975 5 -0.0700577 5.38203 0.0167148 5.77656L1.09743 10L0.0167148 14.2234C-0.0700577 14.618 0.191975 15 0.549011 15H1.92057C2.09343 15 2.256 14.9074 2.35957 14.75L3.84122 12.5H7.36906L5.68746 19.2031C5.58731 19.6023 5.85037 20 6.21495 20H8.46143C8.6583 20 8.84008 19.8797 8.93782 19.6852L12.5428 12.5H16.4627C17.6751 12.5 19.7552 11.3809 19.7552 10C19.7552 8.61914 17.6751 7.5 16.4627 7.5Z" fill="black"/>
</svg>
