<svg width="26" height="23" viewBox="0 0 26 23" fill="none" xmlns="http://www.w3.org/2000/svg">
<path d="M25.1552 10.0625H23.83C23.4347 9.16406 22.8597 8.36895 22.15 7.7041L22.999 4.3125H21.5615C20.2408 4.3125 19.0728 4.91895 18.2822 5.85332C17.9408 5.80391 17.6039 5.75 17.249 5.75H11.499C8.02204 5.75 5.12457 8.2207 4.45524 11.5H2.51461C1.84977 11.5 1.32418 10.8936 1.45895 10.2063C1.55778 9.69414 2.03844 9.34375 2.55953 9.34375H2.60446C2.7527 9.34375 2.87399 9.22246 2.87399 9.07422V8.17578C2.87399 8.02754 2.7527 7.90625 2.60446 7.90625C1.32418 7.90625 0.183167 8.82266 0.0214482 10.0895C-0.176208 11.6258 1.01871 12.9375 2.51461 12.9375H4.31149C4.31149 15.2824 5.4525 17.3443 7.18649 18.6561V22.2813C7.18649 22.6766 7.50993 23 7.90524 23H10.7802C11.1756 23 11.499 22.6766 11.499 22.2813V20.125H17.249V22.2813C17.249 22.6766 17.5724 23 17.9677 23H20.8427C21.2381 23 21.5615 22.6766 21.5615 22.2813V18.6561C22.0916 18.2563 22.5632 17.7846 22.9675 17.25H25.1552C25.5506 17.25 25.874 16.9266 25.874 16.5313V10.7813C25.874 10.3859 25.5506 10.0625 25.1552 10.0625ZM19.4052 12.9375C19.0099 12.9375 18.6865 12.6141 18.6865 12.2188C18.6865 11.8234 19.0099 11.5 19.4052 11.5C19.8006 11.5 20.124 11.8234 20.124 12.2188C20.124 12.6141 19.8006 12.9375 19.4052 12.9375ZM11.499 4.3125H17.249C17.4916 4.3125 17.7297 4.33047 17.9632 4.34844C17.9632 4.33496 17.9677 4.32598 17.9677 4.3125C17.9677 1.93164 16.0361 0 13.6552 0C11.2744 0 9.34274 1.93164 9.34274 4.3125C9.34274 4.40684 9.3652 4.49668 9.36969 4.59102C10.0525 4.41582 10.7623 4.3125 11.499 4.3125Z" fill="black"/>
</svg>
